<svg xmlns="http://www.w3.org/2000/svg" viewBox="0 0 18 18"><defs><style>.cls-1{fill:#056363;}.cls-2{fill:none;}</style></defs><g id="Ebene_2" data-name="Ebene 2"><g id="Ebene_1-2" data-name="Ebene 1"><path d="M6.65,5.62A2.81,2.81,0,1,0,3.82,2.81,2.81,2.81,0,0,0,6.65,5.62ZM6.65,1A1.81,1.81,0,1,1,4.82,2.81,1.82,1.82,0,0,1,6.65,1Z"/><path d="M6.54,15A6.77,6.77,0,0,1,2,13.17V13a6,6,0,0,1,.9-3.2A4.67,4.67,0,0,1,5.63,7.72a4.32,4.32,0,0,1,1-.13,3.86,3.86,0,0,1,1,.14,4.69,4.69,0,0,1,2.75,2.14c.05.08.09.17.13.25a4.78,4.78,0,0,1,.84-.57A5.69,5.69,0,0,0,7.82,6.73a5,5,0,0,0-2.35,0A5.8,5.8,0,0,0,1.67,10,7.09,7.09,0,0,0,1,13a5.68,5.68,0,0,0,0,.59A7.73,7.73,0,0,0,6.54,16a7.4,7.4,0,0,0,2.89-.6,4.34,4.34,0,0,1-.32-.94A6.54,6.54,0,0,1,6.54,15Z"/><path class="cls-1" d="M13.5,9a4.42,4.42,0,0,0-2.11.55,4.78,4.78,0,0,0-.84.57A4.5,4.5,0,0,0,9,13.5a4.59,4.59,0,0,0,.43,1.9A4.5,4.5,0,1,0,13.5,9ZM16,14H14v2H13V14H11V13h2V11h1v2h2Z"/><rect class="cls-2" width="18" height="18"/></g></g></svg>