<svg xmlns="http://www.w3.org/2000/svg" viewBox="0 0 16.65 16"><defs><style>.cls-1{fill:#056363;}</style></defs><g id="Ebene_2" data-name="Ebene 2"><g id="Ebene_1-2" data-name="Ebene 1"><path d="M12.65,1a1,1,0,1,1-1,1,1,1,0,0,1,1-1m0-1a2,2,0,1,0,2,2,2,2,0,0,0-2-2Z"/><path d="M16.18,6.92a4.83,4.83,0,0,0-.3-.55c-.08-.14-.17-.27-.26-.4s-.19-.23-.29-.34a3.8,3.8,0,0,0-1.85-1.14,3.22,3.22,0,0,0-1.67,0,3.78,3.78,0,0,0-2,1.3,4.55,4.55,0,0,0-.69,1.1v0a6.27,6.27,0,0,0-.28.8,5.76,5.76,0,0,1,.87.84A4.71,4.71,0,0,1,10,7.32l0,0h0a3.85,3.85,0,0,1,.54-.85,2.81,2.81,0,0,1,1.47-1,2.39,2.39,0,0,1,.59-.08,2.32,2.32,0,0,1,.58.08,2.8,2.8,0,0,1,1.37.85,3.2,3.2,0,0,1,.22.27c.07.09.14.2.21.31a3.74,3.74,0,0,1,.23.44A4.26,4.26,0,0,1,15.64,9a3.89,3.89,0,0,1-.48.43,4.23,4.23,0,0,1-2.59.92,4.16,4.16,0,0,1-2-.57,7.35,7.35,0,0,1,.52,1.33,4.79,4.79,0,0,0,1.52.24,5.16,5.16,0,0,0,3.2-1.13,6.63,6.63,0,0,0,.87-.81c0-.09,0-.18,0-.27A5.52,5.52,0,0,0,16.18,6.92Z"/><path class="cls-1" d="M5.65,5.62A2.81,2.81,0,1,0,2.82,2.81,2.81,2.81,0,0,0,5.65,5.62Z"/><path class="cls-1" d="M11.05,11.14a7.35,7.35,0,0,0-.52-1.33,6.58,6.58,0,0,0-.82-1.25,5.76,5.76,0,0,0-.87-.84A5.17,5.17,0,0,0,5.65,6.59C2.53,6.59,0,9.47,0,13a5.68,5.68,0,0,0,0,.59A7.73,7.73,0,0,0,5.54,16a7.85,7.85,0,0,0,5.74-2.61c0-.12,0-.24,0-.36A7.31,7.31,0,0,0,11.05,11.14Z"/></g></g></svg>