<svg xmlns="http://www.w3.org/2000/svg" viewBox="0 0 16.65 16"><defs><style>.cls-1{fill:#056363;}</style></defs><g id="Ebene_2" data-name="Ebene 2"><g id="Ebene_1-2" data-name="Ebene 1"><circle class="cls-1" cx="12.65" cy="2" r="2"/><path class="cls-1" d="M16.18,6.92a4.83,4.83,0,0,0-.3-.55c-.08-.14-.17-.27-.26-.4s-.19-.23-.29-.34a3.8,3.8,0,0,0-1.85-1.14,3.22,3.22,0,0,0-1.67,0,3.78,3.78,0,0,0-2,1.3,4.55,4.55,0,0,0-.69,1.1v0a4.3,4.3,0,0,0-.28.81A6.3,6.3,0,0,1,10.63,10a6.15,6.15,0,0,1,.4,1.14,5.27,5.27,0,0,0,1.54.24,5.16,5.16,0,0,0,3.2-1.13,6.63,6.63,0,0,0,.87-.81c0-.09,0-.18,0-.27A5.52,5.52,0,0,0,16.18,6.92Z"/><path d="M5.65,5.62A2.81,2.81,0,1,0,2.82,2.81,2.81,2.81,0,0,0,5.65,5.62ZM5.65,1A1.81,1.81,0,1,1,3.82,2.81,1.82,1.82,0,0,1,5.65,1Z"/><path d="M11,11.14a6.15,6.15,0,0,0-.4-1.14A6.3,6.3,0,0,0,8.84,7.73a5.32,5.32,0,0,0-2-1,5,5,0,0,0-2.35,0A5.8,5.8,0,0,0,.67,10,7.09,7.09,0,0,0,0,13a5.68,5.68,0,0,0,0,.59A7.73,7.73,0,0,0,5.54,16a7.85,7.85,0,0,0,5.74-2.61c0-.12,0-.24,0-.36A6.9,6.9,0,0,0,11,11.14ZM5.54,15A6.77,6.77,0,0,1,1,13.17V13a6,6,0,0,1,.9-3.2A4.67,4.67,0,0,1,4.63,7.72a4.32,4.32,0,0,1,1-.13,3.86,3.86,0,0,1,1,.14,4.47,4.47,0,0,1,2,1.2,5.39,5.39,0,0,1,.76.94,5.75,5.75,0,0,1,.34.65A5.94,5.94,0,0,1,10.29,13,6.77,6.77,0,0,1,5.54,15Z"/></g></g></svg>