<svg id="Ebene_1" data-name="Ebene 1" xmlns="http://www.w3.org/2000/svg" viewBox="0 0 50 50"><defs><style>.cls-1-empty2{fill:#7fc7cc;}.cls-2-empty2{fill:#007373;}.cls-3-empty2{fill:#084745;}.cls-4-empty2{fill:#fff;}.cls-5-empty2{fill:#008f92;}</style></defs><polygon class="cls-1-empty2" points="5 22 7.5 19 42.5 19 45 22 5 22"/><rect class="cls-2-empty2" x="5" y="22" width="40" height="26"/><polygon class="cls-3-empty2" points="37 41 35 42 15 42 13 41 13 22 37 22 37 41"/><rect class="cls-2-empty2" x="15" y="5" width="20" height="43"/><polygon class="cls-1-empty2" points="15 5 18 2 32.07 2 35 5 15 5"/><rect class="cls-4-empty2" x="16" y="10" width="18" height="1"/><rect class="cls-4-empty2" x="16" y="16" width="18" height="1"/><rect class="cls-4-empty2" x="16" y="22" width="18" height="1"/><rect class="cls-4-empty2" x="16" y="28" width="18" height="1"/><rect class="cls-4-empty2" x="16" y="35" width="18" height="1"/><rect class="cls-4-empty2" x="5" y="28" width="8" height="1"/><rect class="cls-4-empty2" x="5" y="35" width="8" height="1"/><rect class="cls-4-empty2" x="37" y="28" width="8" height="1"/><rect class="cls-4-empty2" x="37" y="35" width="8" height="1"/><rect class="cls-4-empty2" x="5" y="43" width="9" height="1"/><rect class="cls-4-empty2" x="36" y="43" width="9" height="1"/><rect class="cls-1-empty2" x="13" y="28" width="1" height="1"/><rect class="cls-1-empty2" x="13" y="35" width="1" height="1"/><rect class="cls-1-empty2" x="36" y="28" width="1" height="1"/><rect class="cls-1-empty2" x="36" y="35" width="1" height="1"/><polygon class="cls-5-empty2" points="13 22 13.5 21 15 21 15 22 13 22"/><rect class="cls-3-empty2" x="5" y="48" width="40" height="1"/><rect class="cls-4-empty2" x="23" y="42" width="4" height="7"/><polygon class="cls-5-empty2" points="37 22 36.5 21 35 21 35 22 37 22"/></svg>