<svg id="Ebene_1" data-name="Ebene 1" xmlns="http://www.w3.org/2000/svg" viewBox="0 0 50 50"><defs><style>.cls-1-empty1{fill:#7fc7cc;}.cls-2-empty1{fill:#007373;}.cls-3-empty1{fill:#23a0a4;}.cls-4-empty1{fill:#fff;}</style></defs><path class="cls-1-empty1" d="M47,11.07A2.07,2.07,0,0,0,44.93,9H18.5l-5-4H2A2,2,0,0,0,0,7v7H47Z"/><path class="cls-2-empty1" d="M46,44H1a1,1,0,0,1-1-1V7A1,1,0,0,1,1,6H13l5,4H46a1,1,0,0,1,1,1V43A1,1,0,0,1,46,44Z"/><path class="cls-3-empty1" d="M49,15H3a1,1,0,0,0-1,1V43a1,1,0,0,1-1,1H49a1,1,0,0,0,1-1V16A1,1,0,0,0,49,15Z"/><rect class="cls-4-empty1" x="13" y="24" width="19" height="1"/><rect class="cls-4-empty1" x="13" y="27" width="27" height="1"/><rect class="cls-4-empty1" x="13" y="30" width="24" height="1"/></svg>