<svg id="Ebene_1" data-name="Ebene 1" xmlns="http://www.w3.org/2000/svg" viewBox="0 0 50 50"><defs><style>.cls-1-empty0{fill:#007373;}.cls-2-empty0{fill:#008f92;}.cls-3-empty0{fill:#084745;}.cls-4-empty0{fill:#7fc7cc;}</style></defs><path class="cls-1-empty0" d="M44.17,2.78a1,1,0,0,0-1-.78H6.8a1,1,0,0,0-1,.78L0,29V46a1,1,0,0,0,1,1H49a1,1,0,0,0,1-1V29ZM33,29a8,8,0,0,1-16,0H3L8,4H42l5,25Z"/><rect class="cls-1-empty0" x="8" y="4" width="34" height="9"/><polygon class="cls-2-empty0" points="42 13 45 29 47 29 42 4 42 13"/><polygon class="cls-3-empty0" points="8 13 5 29 3 29 8 4 8 13"/><path class="cls-4-empty0" d="M42,13H8L5,29H17a8,8,0,0,0,16,0H45Z"/></svg>