<svg xmlns="http://www.w3.org/2000/svg" viewBox="0 0 18 18"><defs><style>.cls-1{fill:#056363;}</style></defs><g id="Ebene_2" data-name="Ebene 2"><g id="Ebene_1-2" data-name="Ebene 1"><path class="cls-1" d="M9,0a9,9,0,1,0,9,9A9,9,0,0,0,9,0ZM9,17a8,8,0,1,1,8-8A8,8,0,0,1,9,17Z"/><path class="cls-1" d="M11.32,9l-.67.72A2.58,2.58,0,0,0,9.72,12H8.28a3.46,3.46,0,0,1,.87-2.64l.9-1A1.52,1.52,0,0,0,10.5,7.2,1.56,1.56,0,0,0,9,5.6,1.56,1.56,0,0,0,7.5,7.2H6A3.11,3.11,0,0,1,9,4a3.11,3.11,0,0,1,3,3.2A3,3,0,0,1,11.32,9Z"/><circle class="cls-1" cx="9" cy="14" r="1"/></g></g></svg>