<svg id="Ebene_1" data-name="Ebene 1" xmlns="http://www.w3.org/2000/svg" viewBox="0 0 18 18"><defs><style>.cls-1{fill:#007373;}</style></defs><path class="cls-1" d="M9.5,0A8.5,8.5,0,1,0,18,8.5,8.51,8.51,0,0,0,9.5,0Zm5,8a10,10,0,0,0-.67-3.09c1.24.21,2.19.45,2.54.55A7.19,7.19,0,0,1,17,8ZM10,16h0V13.49c.72,0,1.44-.07,2.11-.15A11.11,11.11,0,0,1,10,16ZM9,1H9V3.51c-.72,0-1.44.07-2.11.15A11.11,11.11,0,0,1,9,1ZM9,4.51V8H5.54a9.41,9.41,0,0,1,.8-3.27A24.46,24.46,0,0,1,9,4.51ZM9,9v3.49a24.46,24.46,0,0,1-2.66-.22A9.41,9.41,0,0,1,5.54,9Zm1,3.49V9h3.46a9.41,9.41,0,0,1-.8,3.27A24.46,24.46,0,0,1,10,12.49ZM10,8V4.51a24.46,24.46,0,0,1,2.66.22A9.41,9.41,0,0,1,13.46,8Zm5.7-3.7c-.57-.14-1.4-.32-2.38-.47A12.31,12.31,0,0,0,11.6,1.31,7.52,7.52,0,0,1,15.7,4.3ZM10,1a11.11,11.11,0,0,1,2.08,2.63c-.67-.08-1.39-.13-2.11-.15V1ZM7.4,1.31A12.31,12.31,0,0,0,5.68,3.83c-1,.15-1.81.33-2.38.47A7.52,7.52,0,0,1,7.4,1.31ZM2.66,5.46C3,5.36,4,5.12,5.2,4.91A10,10,0,0,0,4.53,8H2A7.19,7.19,0,0,1,2.66,5.46ZM4.53,9a10,10,0,0,0,.67,3.09C4,11.88,3,11.64,2.66,11.54A7.19,7.19,0,0,1,2,9ZM3.3,12.7c.57.14,1.4.32,2.38.47A12.31,12.31,0,0,0,7.4,15.69,7.52,7.52,0,0,1,3.3,12.7ZM9,16a11.11,11.11,0,0,1-2.08-2.63c.67.08,1.39.13,2.11.15V16Zm2.63-.28a12.31,12.31,0,0,0,1.72-2.52c1-.15,1.81-.33,2.38-.47A7.52,7.52,0,0,1,11.6,15.69Zm4.74-4.15c-.35.1-1.3.34-2.54.55A10,10,0,0,0,14.47,9H17A7.19,7.19,0,0,1,16.34,11.54Z"/></svg>