<svg xmlns="http://www.w3.org/2000/svg" viewBox="0 0 17 18"><defs><style>.cls-1{fill:#056363;}</style></defs><g id="Ebene_2" data-name="Ebene 2"><g id="Ebene_1-2" data-name="Ebene 1"><path d="M5.65,5.62A2.81,2.81,0,1,0,2.82,2.81,2.81,2.81,0,0,0,5.65,5.62ZM5.65,1A1.81,1.81,0,1,1,3.82,2.81,1.82,1.82,0,0,1,5.65,1Z"/><path d="M5.54,15A6.77,6.77,0,0,1,1,13.17V13a6,6,0,0,1,.9-3.2A4.67,4.67,0,0,1,4.63,7.72a4.32,4.32,0,0,1,1-.13,3.86,3.86,0,0,1,1,.14A4.69,4.69,0,0,1,9.42,9.87s0,.09.07.13h1.14A6.71,6.71,0,0,0,10,9,5.79,5.79,0,0,0,7.76,7.06a5,5,0,0,0-.94-.33,5,5,0,0,0-2.35,0,5.15,5.15,0,0,0-.93.33A5.78,5.78,0,0,0,1.29,8.93,6.25,6.25,0,0,0,.67,10,7.09,7.09,0,0,0,0,13a5.68,5.68,0,0,0,0,.59A7.73,7.73,0,0,0,5.54,16,7.23,7.23,0,0,0,8,15.57V14.5A6.29,6.29,0,0,1,5.54,15Z"/><path class="cls-1" d="M16,10H9a1,1,0,0,0-1,1v6a1,1,0,0,0,1,1h7a1,1,0,0,0,1-1V11A1,1,0,0,0,16,10Zm-5.63,1H15.3l-2.8,2.41-.56-.48-.68-.59-.56-.48-.65-.56L9.7,11h.67ZM16,17H9V11.72l1.28,1.1.7.6.14.12.83.71.55.47,3.5-3Z"/></g></g></svg>